<svg width="500" height="500" viewBox="0 0 500 500" fill="none" xmlns="http://www.w3.org/2000/svg"><path d="M132.017 185C159.186 185 182.402 201.526 191.695 224.844H164.611C157.357 214.913 145.462 208.438 132.017 208.438C109.92 208.438 92.0059 225.926 92.0059 247.5C92.0059 269.074 109.92 286.562 132.017 286.562C145.811 286.562 157.975 279.746 165.168 269.375H192C182.918 293.104 159.489 310 132.017 310C96.6615 310 68 282.018 68 247.5C68 212.982 96.6615 185 132.017 185Z" fill="#531D84"/>
<path d="M183.5 214C200.897 214 215 229.147 215 247.833C215 266.519 200.897 281.666 183.5 281.666C166.103 281.666 152 266.519 152 247.833C152 229.147 166.103 214 183.5 214ZM183.5 226.688C172.627 226.688 163.812 236.155 163.812 247.833C163.813 259.512 172.627 268.979 183.5 268.979C194.373 268.978 203.187 259.511 203.188 247.833C203.188 236.155 194.373 226.688 183.5 226.688Z" fill="url(#paint0_linear_1_27)"/>
<path d="M235.16 248.576C232.6 248.576 230.216 248.112 228.008 247.184C225.832 246.256 223.928 244.96 222.296 243.296C220.664 241.632 219.384 239.68 218.456 237.44C217.56 235.2 217.112 232.752 217.112 230.096C217.112 227.44 217.56 224.992 218.456 222.752C219.352 220.48 220.616 218.528 222.248 216.896C223.88 215.232 225.784 213.952 227.96 213.056C230.168 212.128 232.568 211.664 235.16 211.664C237.752 211.664 240.072 212.096 242.12 212.96C244.2 213.824 245.96 214.976 247.4 216.416C248.84 217.856 249.864 219.456 250.472 221.216L243.896 224.384C243.288 222.656 242.216 221.232 240.68 220.112C239.176 218.96 237.336 218.384 235.16 218.384C233.048 218.384 231.192 218.88 229.592 219.872C227.992 220.864 226.744 222.24 225.848 224C224.984 225.728 224.552 227.76 224.552 230.096C224.552 232.432 224.984 234.48 225.848 236.24C226.744 238 227.992 239.376 229.592 240.368C231.192 241.36 233.048 241.856 235.16 241.856C237.336 241.856 239.176 241.296 240.68 240.176C242.216 239.024 243.288 237.584 243.896 235.856L250.472 239.024C249.864 240.784 248.84 242.384 247.4 243.824C245.96 245.264 244.2 246.416 242.12 247.28C240.072 248.144 237.752 248.576 235.16 248.576ZM267.257 248.576C264.665 248.576 262.297 247.984 260.153 246.8C258.041 245.616 256.345 244 255.065 241.952C253.817 239.872 253.193 237.52 253.193 234.896C253.193 232.24 253.817 229.888 255.065 227.84C256.345 225.792 258.041 224.176 260.153 222.992C262.297 221.808 264.665 221.216 267.257 221.216C269.849 221.216 272.201 221.808 274.313 222.992C276.425 224.176 278.105 225.792 279.353 227.84C280.633 229.888 281.273 232.24 281.273 234.896C281.273 237.52 280.633 239.872 279.353 241.952C278.105 244 276.425 245.616 274.313 246.8C272.201 247.984 269.849 248.576 267.257 248.576ZM267.257 242.096C268.569 242.096 269.705 241.792 270.665 241.184C271.657 240.576 272.425 239.728 272.969 238.64C273.545 237.552 273.833 236.304 273.833 234.896C273.833 233.488 273.545 232.256 272.969 231.2C272.425 230.112 271.657 229.264 270.665 228.656C269.705 228.016 268.569 227.696 267.257 227.696C265.945 227.696 264.793 228.016 263.801 228.656C262.809 229.264 262.025 230.112 261.449 231.2C260.905 232.256 260.633 233.488 260.633 234.896C260.633 236.304 260.905 237.552 261.449 238.64C262.025 239.728 262.809 240.576 263.801 241.184C264.793 241.792 265.945 242.096 267.257 242.096ZM297.851 248.576C295.291 248.576 293.003 247.968 290.987 246.752C288.971 245.536 287.371 243.888 286.187 241.808C285.035 239.728 284.459 237.424 284.459 234.896C284.459 232.336 285.051 230.032 286.235 227.984C287.419 225.904 289.019 224.256 291.035 223.04C293.051 221.824 295.307 221.216 297.803 221.216C299.723 221.216 301.419 221.584 302.891 222.32C304.395 223.024 305.579 224.032 306.443 225.344L305.339 226.784V211.664H312.539V248H305.819V243.2L306.491 244.688C305.595 245.968 304.379 246.944 302.843 247.616C301.307 248.256 299.643 248.576 297.851 248.576ZM298.715 242.096C300.027 242.096 301.179 241.792 302.171 241.184C303.163 240.576 303.931 239.728 304.475 238.64C305.051 237.552 305.339 236.304 305.339 234.896C305.339 233.488 305.051 232.24 304.475 231.152C303.931 230.064 303.163 229.216 302.171 228.608C301.179 228 300.027 227.696 298.715 227.696C297.403 227.696 296.219 228.016 295.163 228.656C294.139 229.264 293.339 230.112 292.763 231.2C292.187 232.256 291.899 233.488 291.899 234.896C291.899 236.304 292.187 237.552 292.763 238.64C293.339 239.728 294.139 240.576 295.163 241.184C296.219 241.792 297.403 242.096 298.715 242.096ZM330.436 248.576C327.652 248.576 325.236 247.968 323.188 246.752C321.14 245.504 319.556 243.84 318.436 241.76C317.316 239.68 316.756 237.376 316.756 234.848C316.756 232.224 317.332 229.888 318.484 227.84C319.668 225.792 321.252 224.176 323.236 222.992C325.22 221.808 327.46 221.216 329.956 221.216C332.036 221.216 333.876 221.552 335.476 222.224C337.076 222.864 338.42 223.776 339.508 224.96C340.628 226.144 341.476 227.52 342.052 229.088C342.628 230.624 342.916 232.304 342.916 234.128C342.916 234.64 342.884 235.152 342.82 235.664C342.788 236.144 342.708 236.56 342.58 236.912H322.948V231.632H338.5L335.092 234.128C335.412 232.752 335.396 231.536 335.044 230.48C334.692 229.392 334.068 228.544 333.172 227.936C332.308 227.296 331.236 226.976 329.956 226.976C328.708 226.976 327.636 227.28 326.74 227.888C325.844 228.496 325.172 229.392 324.724 230.576C324.276 231.76 324.1 233.2 324.196 234.896C324.068 236.368 324.244 237.664 324.724 238.784C325.204 239.904 325.94 240.784 326.932 241.424C327.924 242.032 329.124 242.336 330.532 242.336C331.812 242.336 332.9 242.08 333.796 241.568C334.724 241.056 335.444 240.352 335.956 239.456L341.716 242.192C341.204 243.472 340.388 244.592 339.268 245.552C338.18 246.512 336.884 247.264 335.38 247.808C333.876 248.32 332.228 248.576 330.436 248.576Z" fill="#531D84"/>
<path d="M236.072 288.576C233.384 288.576 230.888 288.112 228.584 287.184C226.28 286.256 224.264 284.96 222.536 283.296C220.84 281.6 219.512 279.632 218.552 277.392C217.592 275.152 217.112 272.72 217.112 270.096C217.112 267.472 217.576 265.04 218.504 262.8C219.464 260.56 220.792 258.608 222.488 256.944C224.216 255.28 226.232 253.984 228.536 253.056C230.84 252.128 233.352 251.664 236.072 251.664C238.792 251.664 241.304 252.128 243.608 253.056C245.912 253.984 247.912 255.28 249.608 256.944C251.336 258.608 252.664 260.56 253.592 262.8C254.552 265.04 255.032 267.472 255.032 270.096C255.032 272.72 254.552 275.152 253.592 277.392C252.632 279.632 251.288 281.6 249.56 283.296C247.864 284.96 245.864 286.256 243.56 287.184C241.256 288.112 238.76 288.576 236.072 288.576ZM236.072 281.856C237.704 281.856 239.208 281.568 240.584 280.992C241.992 280.416 243.224 279.616 244.28 278.592C245.336 277.536 246.152 276.288 246.728 274.848C247.304 273.408 247.592 271.824 247.592 270.096C247.592 268.368 247.304 266.8 246.728 265.392C246.152 263.952 245.336 262.704 244.28 261.648C243.224 260.592 241.992 259.792 240.584 259.248C239.208 258.672 237.704 258.384 236.072 258.384C234.44 258.384 232.92 258.672 231.512 259.248C230.136 259.792 228.92 260.592 227.864 261.648C226.808 262.704 225.992 263.952 225.416 265.392C224.84 266.8 224.552 268.368 224.552 270.096C224.552 271.824 224.84 273.408 225.416 274.848C225.992 276.288 226.808 277.536 227.864 278.592C228.92 279.616 230.136 280.416 231.512 280.992C232.92 281.568 234.44 281.856 236.072 281.856ZM259.781 297.6V261.792H266.501V266.784L265.877 265.344C266.741 264.032 267.909 263.024 269.381 262.32C270.885 261.584 272.597 261.216 274.517 261.216C277.013 261.216 279.269 261.824 281.285 263.04C283.301 264.256 284.901 265.904 286.085 267.984C287.269 270.032 287.861 272.336 287.861 274.896C287.861 277.424 287.269 279.728 286.085 281.808C284.933 283.888 283.349 285.536 281.333 286.752C279.317 287.968 277.029 288.576 274.469 288.576C272.677 288.576 271.013 288.256 269.477 287.616C267.973 286.944 266.757 285.968 265.829 284.688L266.981 283.2V297.6H259.781ZM273.605 282.096C274.949 282.096 276.133 281.792 277.157 281.184C278.181 280.576 278.981 279.728 279.557 278.64C280.133 277.552 280.421 276.304 280.421 274.896C280.421 273.488 280.133 272.256 279.557 271.2C278.981 270.112 278.181 269.264 277.157 268.656C276.133 268.016 274.949 267.696 273.605 267.696C272.325 267.696 271.173 268 270.149 268.608C269.157 269.216 268.373 270.064 267.797 271.152C267.253 272.24 266.981 273.488 266.981 274.896C266.981 276.304 267.253 277.552 267.797 278.64C268.373 279.728 269.157 280.576 270.149 281.184C271.173 281.792 272.325 282.096 273.605 282.096ZM292.078 297.6V261.792H298.798V266.784L298.174 265.344C299.038 264.032 300.206 263.024 301.678 262.32C303.182 261.584 304.894 261.216 306.814 261.216C309.31 261.216 311.566 261.824 313.582 263.04C315.598 264.256 317.198 265.904 318.382 267.984C319.566 270.032 320.158 272.336 320.158 274.896C320.158 277.424 319.566 279.728 318.382 281.808C317.23 283.888 315.646 285.536 313.63 286.752C311.614 287.968 309.326 288.576 306.766 288.576C304.974 288.576 303.31 288.256 301.773 287.616C300.27 286.944 299.054 285.968 298.126 284.688L299.278 283.2V297.6H292.078ZM305.902 282.096C307.246 282.096 308.43 281.792 309.454 281.184C310.478 280.576 311.278 279.728 311.854 278.64C312.43 277.552 312.718 276.304 312.718 274.896C312.718 273.488 312.43 272.256 311.854 271.2C311.278 270.112 310.478 269.264 309.454 268.656C308.43 268.016 307.246 267.696 305.902 267.696C304.622 267.696 303.47 268 302.446 268.608C301.454 269.216 300.67 270.064 300.094 271.152C299.55 272.24 299.278 273.488 299.278 274.896C299.278 276.304 299.55 277.552 300.094 278.64C300.67 279.728 301.454 280.576 302.446 281.184C303.47 281.792 304.622 282.096 305.902 282.096ZM337.382 288.576C334.79 288.576 332.422 287.984 330.278 286.8C328.166 285.616 326.47 284 325.19 281.952C323.942 279.872 323.318 277.52 323.318 274.896C323.318 272.24 323.942 269.888 325.19 267.84C326.47 265.792 328.166 264.176 330.278 262.992C332.422 261.808 334.79 261.216 337.382 261.216C339.974 261.216 342.326 261.808 344.438 262.992C346.55 264.176 348.23 265.792 349.478 267.84C350.758 269.888 351.398 272.24 351.398 274.896C351.398 277.52 350.758 279.872 349.478 281.952C348.23 284 346.55 285.616 344.438 286.8C342.326 287.984 339.974 288.576 337.382 288.576ZM337.382 282.096C338.694 282.096 339.83 281.792 340.79 281.184C341.782 280.576 342.55 279.728 343.094 278.64C343.67 277.552 343.958 276.304 343.958 274.896C343.958 273.488 343.67 272.256 343.094 271.2C342.55 270.112 341.782 269.264 340.79 268.656C339.83 268.016 338.694 267.696 337.382 267.696C336.07 267.696 334.918 268.016 333.926 268.656C332.934 269.264 332.15 270.112 331.574 271.2C331.03 272.256 330.758 273.488 330.758 274.896C330.758 276.304 331.03 277.552 331.574 278.64C332.15 279.728 332.934 280.576 333.926 281.184C334.918 281.792 336.07 282.096 337.382 282.096ZM365.912 288.576C363.032 288.576 360.52 287.904 358.376 286.56C356.264 285.184 354.824 283.344 354.056 281.04L359.336 278.544C360.008 279.952 360.92 281.056 362.072 281.856C363.224 282.656 364.504 283.056 365.912 283.056C366.936 283.056 367.72 282.848 368.264 282.432C368.808 282.016 369.08 281.44 369.08 280.704C369.08 280.32 368.984 280 368.792 279.744C368.6 279.456 368.312 279.2 367.928 278.976C367.544 278.752 367.064 278.56 366.488 278.4L362.024 277.152C359.88 276.544 358.232 275.568 357.08 274.224C355.928 272.848 355.352 271.232 355.352 269.376C355.352 267.744 355.768 266.32 356.6 265.104C357.432 263.888 358.6 262.944 360.104 262.272C361.608 261.568 363.336 261.216 365.288 261.216C367.848 261.216 370.088 261.824 372.008 263.04C373.96 264.224 375.336 265.904 376.136 268.08L370.808 270.576C370.424 269.488 369.72 268.624 368.696 267.984C367.704 267.312 366.568 266.976 365.288 266.976C364.36 266.976 363.624 267.168 363.08 267.552C362.568 267.936 362.312 268.464 362.312 269.136C362.312 269.488 362.408 269.808 362.6 270.096C362.792 270.384 363.096 270.64 363.512 270.864C363.96 271.088 364.504 271.296 365.144 271.488L369.32 272.736C371.496 273.376 373.16 274.352 374.312 275.664C375.464 276.944 376.04 278.528 376.04 280.416C376.04 282.048 375.608 283.472 374.744 284.688C373.912 285.904 372.744 286.864 371.24 287.568C369.736 288.24 367.96 288.576 365.912 288.576ZM380.343 288V261.792H387.543V288H380.343ZM380.343 259.44V252.24H387.543V259.44H380.343ZM405.436 288.288C402.268 288.288 399.804 287.44 398.044 285.744C396.316 284.016 395.452 281.616 395.452 278.544V268.032H391.036V261.792H391.276C392.62 261.792 393.644 261.456 394.348 260.784C395.084 260.112 395.452 259.104 395.452 257.76V255.84H402.652V261.792H408.796V268.032H402.652V278.064C402.652 278.96 402.812 279.712 403.132 280.32C403.452 280.896 403.948 281.328 404.62 281.616C405.292 281.904 406.124 282.048 407.116 282.048C407.34 282.048 407.596 282.032 407.884 282C408.172 281.968 408.476 281.936 408.796 281.904V288C408.316 288.064 407.772 288.128 407.164 288.192C406.556 288.256 405.98 288.288 405.436 288.288ZM425.639 288.576C422.855 288.576 420.439 287.968 418.391 286.752C416.343 285.504 414.759 283.84 413.639 281.76C412.519 279.68 411.959 277.376 411.959 274.848C411.959 272.224 412.535 269.888 413.687 267.84C414.871 265.792 416.455 264.176 418.439 262.992C420.423 261.808 422.663 261.216 425.159 261.216C427.239 261.216 429.079 261.552 430.679 262.224C432.279 262.864 433.623 263.776 434.711 264.96C435.831 266.144 436.679 267.52 437.255 269.088C437.831 270.624 438.119 272.304 438.119 274.128C438.119 274.64 438.087 275.152 438.023 275.664C437.991 276.144 437.911 276.56 437.783 276.912H418.151V271.632H433.703L430.295 274.128C430.615 272.752 430.599 271.536 430.247 270.48C429.895 269.392 429.271 268.544 428.375 267.936C427.511 267.296 426.439 266.976 425.159 266.976C423.911 266.976 422.839 267.28 421.943 267.888C421.047 268.496 420.375 269.392 419.927 270.576C419.479 271.76 419.303 273.2 419.399 274.896C419.271 276.368 419.447 277.664 419.927 278.784C420.407 279.904 421.143 280.784 422.135 281.424C423.127 282.032 424.327 282.336 425.735 282.336C427.015 282.336 428.103 282.08 428.999 281.568C429.927 281.056 430.647 280.352 431.159 279.456L436.919 282.192C436.407 283.472 435.591 284.592 434.471 285.552C433.383 286.512 432.087 287.264 430.583 287.808C429.079 288.32 427.431 288.576 425.639 288.576Z" fill="#9333EA"/>
<defs>
<linearGradient id="paint0_linear_1_27" x1="215" y1="248.242" x2="156.609" y2="248.242" gradientUnits="userSpaceOnUse">
<stop stop-color="#9333EA"/>
<stop stop-color="#7A2AC2"/>
<stop offset="1" stop-color="#531D84"/>
</linearGradient>
</defs>
</svg>
