<svg width="500" height="500" viewBox="0 0 500 500" fill="none" xmlns="http://www.w3.org/2000/svg">
<rect width="500" height="500" fill="white"/>
<path d="M236.024 156C276.779 156 311.604 180.789 325.544 215.766H284.919C274.037 200.869 256.193 191.156 236.024 191.156C202.879 191.156 176.009 217.39 176.009 249.75C176.009 282.11 202.879 308.344 236.024 308.344C256.717 308.344 274.963 298.119 285.753 282.562H326.001C312.377 318.156 277.233 343.5 236.024 343.5C182.992 343.5 140 301.527 140 249.75C140 197.973 182.992 156 236.024 156Z" fill="#531D84"/>
<path d="M313.25 199.5C339.345 199.5 360.5 222.222 360.5 250.25C360.5 278.278 339.345 300.999 313.25 300.999C287.155 300.999 266 278.278 266 250.25C266 222.222 287.154 199.5 313.25 199.5ZM313.25 218.531C296.94 218.531 283.719 232.731 283.719 250.249C283.719 267.767 296.94 281.968 313.25 281.968C329.56 281.968 342.781 267.767 342.781 250.249C342.781 232.732 329.56 218.531 313.25 218.531Z" fill="url(#paint0_linear_4_2)"/>
<defs>
<linearGradient id="paint0_linear_4_2" x1="360.5" y1="250.863" x2="272.914" y2="250.863" gradientUnits="userSpaceOnUse">
<stop stop-color="#9333EA"/>
<stop stop-color="#7A2AC2"/>
<stop offset="1" stop-color="#531D84"/>
</linearGradient>
</defs>
</svg>
