<svg width="389" height="179" viewBox="0 0 389 179" fill="none" xmlns="http://www.w3.org/2000/svg"><path d="M73.0166 27C100.186 27.0002 123.402 43.5262 132.695 66.8438H105.611C98.3569 56.9134 86.4618 50.4377 73.0166 50.4375C50.9197 50.4375 33.0059 67.9264 33.0059 89.5C33.0059 111.074 50.9197 128.562 73.0166 128.562C86.8113 128.562 98.9748 121.746 106.168 111.375H133C123.918 135.104 100.489 152 73.0166 152C37.6615 152 9 124.018 9 89.5C9 54.9822 37.6615 27 73.0166 27Z" fill="#F2ECF9"/>
<path d="M124.5 56C141.897 56 156 71.1474 156 89.833C156 108.519 141.897 123.666 124.5 123.666C107.103 123.666 93 108.519 93 89.833C93 71.1474 107.103 56 124.5 56ZM124.5 68.6875C113.627 68.6875 104.812 78.1545 104.812 89.833C104.813 101.512 113.627 110.979 124.5 110.979C135.373 110.978 144.187 101.511 144.188 89.833C144.188 78.1545 135.373 68.6875 124.5 68.6875Z" fill="url(#paint0_linear_8_17)"/>
<path d="M176.16 90.576C173.6 90.576 171.216 90.112 169.008 89.184C166.832 88.256 164.928 86.96 163.296 85.296C161.664 83.632 160.384 81.68 159.456 79.44C158.56 77.2 158.112 74.752 158.112 72.096C158.112 69.44 158.56 66.992 159.456 64.752C160.352 62.48 161.616 60.528 163.248 58.896C164.88 57.232 166.784 55.952 168.96 55.056C171.168 54.128 173.568 53.664 176.16 53.664C178.752 53.664 181.072 54.096 183.12 54.96C185.2 55.824 186.96 56.976 188.4 58.416C189.84 59.856 190.864 61.456 191.472 63.216L184.896 66.384C184.288 64.656 183.216 63.232 181.68 62.112C180.176 60.96 178.336 60.384 176.16 60.384C174.048 60.384 172.192 60.88 170.592 61.872C168.992 62.864 167.744 64.24 166.848 66C165.984 67.728 165.552 69.76 165.552 72.096C165.552 74.432 165.984 76.48 166.848 78.24C167.744 80 168.992 81.376 170.592 82.368C172.192 83.36 174.048 83.856 176.16 83.856C178.336 83.856 180.176 83.296 181.68 82.176C183.216 81.024 184.288 79.584 184.896 77.856L191.472 81.024C190.864 82.784 189.84 84.384 188.4 85.824C186.96 87.264 185.2 88.416 183.12 89.28C181.072 90.144 178.752 90.576 176.16 90.576ZM208.257 90.576C205.665 90.576 203.297 89.984 201.153 88.8C199.041 87.616 197.345 86 196.065 83.952C194.817 81.872 194.193 79.52 194.193 76.896C194.193 74.24 194.817 71.888 196.065 69.84C197.345 67.792 199.041 66.176 201.153 64.992C203.297 63.808 205.665 63.216 208.257 63.216C210.849 63.216 213.201 63.808 215.313 64.992C217.425 66.176 219.105 67.792 220.353 69.84C221.633 71.888 222.273 74.24 222.273 76.896C222.273 79.52 221.633 81.872 220.353 83.952C219.105 86 217.425 87.616 215.313 88.8C213.201 89.984 210.849 90.576 208.257 90.576ZM208.257 84.096C209.569 84.096 210.705 83.792 211.665 83.184C212.657 82.576 213.425 81.728 213.969 80.64C214.545 79.552 214.833 78.304 214.833 76.896C214.833 75.488 214.545 74.256 213.969 73.2C213.425 72.112 212.657 71.264 211.665 70.656C210.705 70.016 209.569 69.696 208.257 69.696C206.945 69.696 205.793 70.016 204.801 70.656C203.809 71.264 203.025 72.112 202.449 73.2C201.905 74.256 201.633 75.488 201.633 76.896C201.633 78.304 201.905 79.552 202.449 80.64C203.025 81.728 203.809 82.576 204.801 83.184C205.793 83.792 206.945 84.096 208.257 84.096ZM238.851 90.576C236.291 90.576 234.003 89.968 231.987 88.752C229.971 87.536 228.371 85.888 227.187 83.808C226.035 81.728 225.459 79.424 225.459 76.896C225.459 74.336 226.051 72.032 227.235 69.984C228.419 67.904 230.019 66.256 232.035 65.04C234.051 63.824 236.307 63.216 238.803 63.216C240.723 63.216 242.419 63.584 243.891 64.32C245.395 65.024 246.579 66.032 247.443 67.344L246.339 68.784V53.664H253.539V90H246.819V85.2L247.491 86.688C246.595 87.968 245.379 88.944 243.843 89.616C242.307 90.256 240.643 90.576 238.851 90.576ZM239.715 84.096C241.027 84.096 242.179 83.792 243.171 83.184C244.163 82.576 244.931 81.728 245.475 80.64C246.051 79.552 246.339 78.304 246.339 76.896C246.339 75.488 246.051 74.24 245.475 73.152C244.931 72.064 244.163 71.216 243.171 70.608C242.179 70 241.027 69.696 239.715 69.696C238.403 69.696 237.219 70.016 236.163 70.656C235.139 71.264 234.339 72.112 233.763 73.2C233.187 74.256 232.899 75.488 232.899 76.896C232.899 78.304 233.187 79.552 233.763 80.64C234.339 81.728 235.139 82.576 236.163 83.184C237.219 83.792 238.403 84.096 239.715 84.096ZM271.436 90.576C268.652 90.576 266.236 89.968 264.188 88.752C262.14 87.504 260.556 85.84 259.436 83.76C258.316 81.68 257.756 79.376 257.756 76.848C257.756 74.224 258.332 71.888 259.484 69.84C260.668 67.792 262.252 66.176 264.236 64.992C266.22 63.808 268.46 63.216 270.956 63.216C273.036 63.216 274.876 63.552 276.476 64.224C278.076 64.864 279.42 65.776 280.508 66.96C281.628 68.144 282.476 69.52 283.052 71.088C283.628 72.624 283.916 74.304 283.916 76.128C283.916 76.64 283.884 77.152 283.82 77.664C283.788 78.144 283.708 78.56 283.58 78.912H263.948V73.632H279.5L276.092 76.128C276.412 74.752 276.396 73.536 276.044 72.48C275.692 71.392 275.068 70.544 274.172 69.936C273.308 69.296 272.236 68.976 270.956 68.976C269.708 68.976 268.636 69.28 267.74 69.888C266.844 70.496 266.172 71.392 265.724 72.576C265.276 73.76 265.1 75.2 265.196 76.896C265.068 78.368 265.244 79.664 265.724 80.784C266.204 81.904 266.94 82.784 267.932 83.424C268.924 84.032 270.124 84.336 271.532 84.336C272.812 84.336 273.9 84.08 274.796 83.568C275.724 83.056 276.444 82.352 276.956 81.456L282.716 84.192C282.204 85.472 281.388 86.592 280.268 87.552C279.18 88.512 277.884 89.264 276.38 89.808C274.876 90.32 273.228 90.576 271.436 90.576Z" fill="#F2ECF9"/>
<path d="M177.072 130.576C174.384 130.576 171.888 130.112 169.584 129.184C167.28 128.256 165.264 126.96 163.536 125.296C161.84 123.6 160.512 121.632 159.552 119.392C158.592 117.152 158.112 114.72 158.112 112.096C158.112 109.472 158.576 107.04 159.504 104.8C160.464 102.56 161.792 100.608 163.488 98.944C165.216 97.28 167.232 95.984 169.536 95.056C171.84 94.128 174.352 93.664 177.072 93.664C179.792 93.664 182.304 94.128 184.608 95.056C186.912 95.984 188.912 97.28 190.608 98.944C192.336 100.608 193.664 102.56 194.592 104.8C195.552 107.04 196.032 109.472 196.032 112.096C196.032 114.72 195.552 117.152 194.592 119.392C193.632 121.632 192.288 123.6 190.56 125.296C188.864 126.96 186.864 128.256 184.56 129.184C182.256 130.112 179.76 130.576 177.072 130.576ZM177.072 123.856C178.704 123.856 180.208 123.568 181.584 122.992C182.992 122.416 184.224 121.616 185.28 120.592C186.336 119.536 187.152 118.288 187.728 116.848C188.304 115.408 188.592 113.824 188.592 112.096C188.592 110.368 188.304 108.8 187.728 107.392C187.152 105.952 186.336 104.704 185.28 103.648C184.224 102.592 182.992 101.792 181.584 101.248C180.208 100.672 178.704 100.384 177.072 100.384C175.44 100.384 173.92 100.672 172.512 101.248C171.136 101.792 169.92 102.592 168.864 103.648C167.808 104.704 166.992 105.952 166.416 107.392C165.84 108.8 165.552 110.368 165.552 112.096C165.552 113.824 165.84 115.408 166.416 116.848C166.992 118.288 167.808 119.536 168.864 120.592C169.92 121.616 171.136 122.416 172.512 122.992C173.92 123.568 175.44 123.856 177.072 123.856ZM200.781 139.6V103.792H207.501V108.784L206.877 107.344C207.741 106.032 208.909 105.024 210.381 104.32C211.885 103.584 213.597 103.216 215.517 103.216C218.013 103.216 220.269 103.824 222.285 105.04C224.301 106.256 225.901 107.904 227.085 109.984C228.269 112.032 228.861 114.336 228.861 116.896C228.861 119.424 228.269 121.728 227.085 123.808C225.933 125.888 224.349 127.536 222.333 128.752C220.317 129.968 218.029 130.576 215.469 130.576C213.677 130.576 212.013 130.256 210.477 129.616C208.973 128.944 207.757 127.968 206.829 126.688L207.981 125.2V139.6H200.781ZM214.605 124.096C215.949 124.096 217.133 123.792 218.157 123.184C219.181 122.576 219.981 121.728 220.557 120.64C221.133 119.552 221.421 118.304 221.421 116.896C221.421 115.488 221.133 114.256 220.557 113.2C219.981 112.112 219.181 111.264 218.157 110.656C217.133 110.016 215.949 109.696 214.605 109.696C213.325 109.696 212.173 110 211.149 110.608C210.157 111.216 209.373 112.064 208.797 113.152C208.253 114.24 207.981 115.488 207.981 116.896C207.981 118.304 208.253 119.552 208.797 120.64C209.373 121.728 210.157 122.576 211.149 123.184C212.173 123.792 213.325 124.096 214.605 124.096ZM233.078 139.6V103.792H239.798V108.784L239.174 107.344C240.038 106.032 241.206 105.024 242.678 104.32C244.182 103.584 245.894 103.216 247.814 103.216C250.31 103.216 252.566 103.824 254.582 105.04C256.598 106.256 258.198 107.904 259.382 109.984C260.566 112.032 261.158 114.336 261.158 116.896C261.158 119.424 260.566 121.728 259.382 123.808C258.23 125.888 256.646 127.536 254.63 128.752C252.614 129.968 250.326 130.576 247.766 130.576C245.974 130.576 244.31 130.256 242.773 129.616C241.27 128.944 240.054 127.968 239.126 126.688L240.278 125.2V139.6H233.078ZM246.902 124.096C248.246 124.096 249.43 123.792 250.454 123.184C251.478 122.576 252.278 121.728 252.854 120.64C253.43 119.552 253.718 118.304 253.718 116.896C253.718 115.488 253.43 114.256 252.854 113.2C252.278 112.112 251.478 111.264 250.454 110.656C249.43 110.016 248.246 109.696 246.902 109.696C245.622 109.696 244.47 110 243.446 110.608C242.454 111.216 241.67 112.064 241.094 113.152C240.55 114.24 240.278 115.488 240.278 116.896C240.278 118.304 240.55 119.552 241.094 120.64C241.67 121.728 242.454 122.576 243.446 123.184C244.47 123.792 245.622 124.096 246.902 124.096ZM278.382 130.576C275.79 130.576 273.422 129.984 271.278 128.8C269.166 127.616 267.47 126 266.19 123.952C264.942 121.872 264.318 119.52 264.318 116.896C264.318 114.24 264.942 111.888 266.19 109.84C267.47 107.792 269.166 106.176 271.278 104.992C273.422 103.808 275.79 103.216 278.382 103.216C280.974 103.216 283.326 103.808 285.438 104.992C287.55 106.176 289.23 107.792 290.478 109.84C291.758 111.888 292.398 114.24 292.398 116.896C292.398 119.52 291.758 121.872 290.478 123.952C289.23 126 287.55 127.616 285.438 128.8C283.326 129.984 280.974 130.576 278.382 130.576ZM278.382 124.096C279.694 124.096 280.83 123.792 281.79 123.184C282.782 122.576 283.55 121.728 284.094 120.64C284.67 119.552 284.958 118.304 284.958 116.896C284.958 115.488 284.67 114.256 284.094 113.2C283.55 112.112 282.782 111.264 281.79 110.656C280.83 110.016 279.694 109.696 278.382 109.696C277.07 109.696 275.918 110.016 274.926 110.656C273.934 111.264 273.15 112.112 272.574 113.2C272.03 114.256 271.758 115.488 271.758 116.896C271.758 118.304 272.03 119.552 272.574 120.64C273.15 121.728 273.934 122.576 274.926 123.184C275.918 123.792 277.07 124.096 278.382 124.096ZM306.912 130.576C304.032 130.576 301.52 129.904 299.376 128.56C297.264 127.184 295.824 125.344 295.056 123.04L300.336 120.544C301.008 121.952 301.92 123.056 303.072 123.856C304.224 124.656 305.504 125.056 306.912 125.056C307.936 125.056 308.72 124.848 309.264 124.432C309.808 124.016 310.08 123.44 310.08 122.704C310.08 122.32 309.984 122 309.792 121.744C309.6 121.456 309.312 121.2 308.928 120.976C308.544 120.752 308.064 120.56 307.488 120.4L303.024 119.152C300.88 118.544 299.232 117.568 298.08 116.224C296.928 114.848 296.352 113.232 296.352 111.376C296.352 109.744 296.768 108.32 297.6 107.104C298.432 105.888 299.6 104.944 301.104 104.272C302.608 103.568 304.336 103.216 306.288 103.216C308.848 103.216 311.088 103.824 313.008 105.04C314.96 106.224 316.336 107.904 317.136 110.08L311.808 112.576C311.424 111.488 310.72 110.624 309.696 109.984C308.704 109.312 307.568 108.976 306.288 108.976C305.36 108.976 304.624 109.168 304.08 109.552C303.568 109.936 303.312 110.464 303.312 111.136C303.312 111.488 303.408 111.808 303.6 112.096C303.792 112.384 304.096 112.64 304.512 112.864C304.96 113.088 305.504 113.296 306.144 113.488L310.32 114.736C312.496 115.376 314.16 116.352 315.312 117.664C316.464 118.944 317.04 120.528 317.04 122.416C317.04 124.048 316.608 125.472 315.744 126.688C314.912 127.904 313.744 128.864 312.24 129.568C310.736 130.24 308.96 130.576 306.912 130.576ZM321.343 130V103.792H328.543V130H321.343ZM321.343 101.44V94.24H328.543V101.44H321.343ZM346.436 130.288C343.268 130.288 340.804 129.44 339.044 127.744C337.316 126.016 336.452 123.616 336.452 120.544V110.032H332.036V103.792H332.276C333.62 103.792 334.644 103.456 335.348 102.784C336.084 102.112 336.452 101.104 336.452 99.76V97.84H343.652V103.792H349.796V110.032H343.652V120.064C343.652 120.96 343.812 121.712 344.132 122.32C344.452 122.896 344.948 123.328 345.62 123.616C346.292 123.904 347.124 124.048 348.116 124.048C348.34 124.048 348.596 124.032 348.884 124C349.172 123.968 349.476 123.936 349.796 123.904V130C349.316 130.064 348.772 130.128 348.164 130.192C347.556 130.256 346.98 130.288 346.436 130.288ZM366.639 130.576C363.855 130.576 361.439 129.968 359.391 128.752C357.343 127.504 355.759 125.84 354.639 123.76C353.519 121.68 352.959 119.376 352.959 116.848C352.959 114.224 353.535 111.888 354.687 109.84C355.871 107.792 357.455 106.176 359.439 104.992C361.423 103.808 363.663 103.216 366.159 103.216C368.239 103.216 370.079 103.552 371.679 104.224C373.279 104.864 374.623 105.776 375.711 106.96C376.831 108.144 377.679 109.52 378.255 111.088C378.831 112.624 379.119 114.304 379.119 116.128C379.119 116.64 379.087 117.152 379.023 117.664C378.991 118.144 378.911 118.56 378.783 118.912H359.151V113.632H374.703L371.295 116.128C371.615 114.752 371.599 113.536 371.247 112.48C370.895 111.392 370.271 110.544 369.375 109.936C368.511 109.296 367.439 108.976 366.159 108.976C364.911 108.976 363.839 109.28 362.943 109.888C362.047 110.496 361.375 111.392 360.927 112.576C360.479 113.76 360.303 115.2 360.399 116.896C360.271 118.368 360.447 119.664 360.927 120.784C361.407 121.904 362.143 122.784 363.135 123.424C364.127 124.032 365.327 124.336 366.735 124.336C368.015 124.336 369.103 124.08 369.999 123.568C370.927 123.056 371.647 122.352 372.159 121.456L377.919 124.192C377.407 125.472 376.591 126.592 375.471 127.552C374.383 128.512 373.087 129.264 371.583 129.808C370.079 130.32 368.431 130.576 366.639 130.576Z" fill="#9333EA"/>
<defs>
<linearGradient id="paint0_linear_8_17" x1="156" y1="90.2423" x2="97.6095" y2="90.2423" gradientUnits="userSpaceOnUse">
<stop stop-color="#9333EA"/>
<stop stop-color="#7A2AC2"/>
<stop offset="1" stop-color="#F2ECF9"/>
</linearGradient>
</defs>
</svg>
