<svg width="241" height="212" viewBox="0 0 241 212" fill="none" xmlns="http://www.w3.org/2000/svg">
<rect width="241" height="212" fill="white"/>
<path d="M107.024 12C147.779 12.0001 182.604 36.7891 196.544 71.7656H155.919C145.037 56.8694 127.193 47.1563 107.024 47.1562C73.879 47.1562 47.0088 73.3896 47.0088 105.75C47.0088 138.11 73.879 164.344 107.024 164.344C127.717 164.344 145.963 154.119 156.753 138.562H197.001C183.377 174.156 148.233 199.5 107.024 199.5C53.9917 199.5 11 157.527 11 105.75C11 53.9733 53.9917 12 107.024 12Z" fill="#531D84"/>
<path d="M184.25 55.5C210.345 55.5 231.5 78.2216 231.5 106.25C231.5 134.278 210.345 156.999 184.25 156.999C158.155 156.999 137 134.278 137 106.25C137 78.2216 158.154 55.5 184.25 55.5ZM184.25 74.5312C167.94 74.5312 154.719 88.7315 154.719 106.249C154.719 123.767 167.94 137.968 184.25 137.968C200.56 137.968 213.781 123.767 213.781 106.249C213.781 88.7315 200.56 74.5313 184.25 74.5312Z" fill="url(#paint0_linear_8_30)"/>
<defs>
<linearGradient id="paint0_linear_8_30" x1="231.5" y1="106.863" x2="143.914" y2="106.863" gradientUnits="userSpaceOnUse">
<stop stop-color="#9333EA"/>
<stop stop-color="#7A2AC2"/>
<stop offset="1" stop-color="#531D84"/>
</linearGradient>
</defs>
</svg>
